<?xml version="1.0" encoding="UTF-8"?>
<svg xmlns="http://www.w3.org/2000/svg" xmlns:xlink="http://www.w3.org/1999/xlink" width="32px" height="32px" viewBox="0 0 32 32" version="1.1">
<g id="surface1">
<path style="fill-rule:nonzero;fill:rgb(100%,100%,100%);fill-opacity:1;stroke-width:1;stroke-linecap:butt;stroke-linejoin:miter;stroke:rgb(100%,100%,100%);stroke-opacity:1;stroke-miterlimit:4;" d="M 180.455156 360.910313 L 24.060688 360.910313 L 24.060688 24.060688 L 180.455156 24.060688 C 187.081244 24.060688 192.4855 18.656432 192.4855 12.030344 C 192.4855 5.404256 187.081244 0 180.455156 0 L 12.030344 0 C 5.404256 0 0 5.404256 0 12.030344 L 0 372.940656 C 0 379.566744 5.404256 384.971 12.030344 384.971 L 180.455156 384.971 C 187.081244 384.971 192.4855 379.566744 192.4855 372.940656 C 192.4855 366.314568 187.081244 360.910313 180.455156 360.910313 Z M 180.455156 360.910313 " transform="matrix(0.0831231,0,0,0.0831231,0,0)"/>
<path style="fill-rule:nonzero;fill:rgb(100%,100%,100%);fill-opacity:1;stroke-width:1;stroke-linecap:butt;stroke-linejoin:miter;stroke:rgb(100%,100%,100%);stroke-opacity:1;stroke-miterlimit:4;" d="M 381.493479 184.073658 L 298.455911 99.908245 C 293.756558 95.114905 286.143606 95.161899 281.444253 99.908245 C 276.7449 104.607598 276.7449 112.314537 281.444253 117.060884 L 344.039635 180.549143 L 96.289744 180.549143 C 89.616662 180.549143 84.2594 185.953399 84.2594 192.673474 C 84.2594 199.393549 89.616662 204.844798 96.289744 204.844798 L 344.039635 204.844798 L 281.444253 268.286064 C 276.7449 273.032411 276.7449 280.73935 281.444253 285.485696 C 286.143606 290.232043 293.756558 290.232043 298.455911 285.485696 L 381.446485 201.27329 C 386.098845 196.573937 386.145838 188.773011 381.493479 184.073658 Z M 381.493479 184.073658 " transform="matrix(0.0831231,0,0,0.0831231,0,0)"/>
</g>
</svg>
