<svg xmlns="http://www.w3.org/2000/svg" xmlns:xlink="http://www.w3.org/1999/xlink" version="1.1" x="0px" y="0px" viewBox="0 0 1000 1000" enable-background="new 0 0 1000 1000" xml:space="preserve">
<metadata fill="#ffffff"> Svg Vector Icons : http://www.onlinewebfonts.com/icon </metadata>
<g><g><g><path d="M500,335c-92.8,0-168.4,74-168.4,165S407.1,665.1,500,665.1c92.8,0,168.3-74.1,168.3-165.1C668.3,409,592.8,335,500,335z M500,631.9c-74.6,0-135.2-59.2-135.2-131.9c0-72.7,60.6-131.8,135.2-131.8c74.5,0,135.1,59.2,135.1,131.8C635.1,572.8,574.5,631.9,500,631.9z" fill="#ffffff"/><path d="M860.2,382.2l-4.7-1.7L837.3,337l2-4.5c55.2-125.1,51.4-128.8,42.2-137.9l-73.6-71.8c-3-3-8.3-5.1-12.8-5.1c-4.1,0-16.7,0-125.3,49.2l-4.3,1.9l-44.8-18.1l-1.8-4.4C567.7,20,562.4,20,549.7,20H445.8c-12.7,0-18.4,0-65.8,126.7l-1.8,4.6l-44.6,18.2l-4.3-1.8c-73.5-31-116.5-46.7-127.7-46.7c-4.6,0-9.8,2-12.9,5l-73.6,72c-9.4,9.2-13.2,13.1,44.8,135.5l2.1,4.6L144,381.5l-4.5,1.7C10,433.3,10,438.1,10,451.2v101.8c0,13.1,0,18.5,129.7,65l4.6,1.6l18.2,43.3l-1.9,4.4c-55.2,125.1-51.7,128.5-42.3,137.8l73.5,71.9c3.1,3,8.4,5.1,12.9,5.1c4.1,0,16.6,0,125.3-49.2l4.3-2.1l44.9,18.1l1.8,4.5C432.2,980,437.5,980,450.2,980h103.9c13,0,18.4,0,65.8-126.8l1.8-4.6l44.7-18.1l4.3,1.8c73.5,31.1,116.4,46.8,127.5,46.8c4.5,0,9.9-2,12.9-5l73.8-72.1c9.3-9.3,13.1-13.1-45-135.4l-2.2-4.6l18.2-43.2l4.3-1.7C990,566.6,990,561.7,990,548.7V447C990,433.9,990,428.5,860.2,382.2z M828.1,599.2l-23.8,56.7c-1.8,4.3-1.7,9.3,0.3,13.6c16.8,35.1,39,83.9,48.1,108l2.6,6.8l-61.7,60.4l-6.5-2.2c-24.4-8.3-76.2-29.3-114-45.3c-3.9-1.6-8.7-1.8-12.9-0.1l-57.8,23.4c-4.3,1.8-7.7,5.3-9.3,9.6c-16.3,44-34.9,90.3-44.2,110.2l-3,6.5h-87.6l-3.1-6.1c-11.5-22.8-32.8-73.3-47.8-110.5c-1.6-4.1-5-7.5-9.2-9.3l-58-23.5c-3.9-1.6-9.2-1.4-13.1,0.3c-37.2,17-87.4,38.8-111.2,47.5l-6.6,2.5l-61.8-60.4l2.4-6.8c8.3-23.5,29.3-73.5,45.9-110.8c1.8-4.2,1.9-8.8,0.1-13.1l-23.8-56.6c-1.8-4.3-5.3-7.6-9.7-9.2c-37.7-13.5-89.1-32.8-112.6-43.3l-6.6-3v-85l6.4-3.1c22.9-10.8,74.1-31.6,112.8-46.6c4.3-1.6,7.6-4.8,9.4-9l23.9-56.7c1.8-4.4,1.7-9.3-0.3-13.6c-20-41.7-40.2-87.2-48.1-108l-2.6-6.8l61.7-60.3l6.4,2.2c23.9,8,75.5,28.8,114.2,45.3c4.1,1.7,8.6,1.7,12.8,0.1l57.8-23.5c4.2-1.8,7.6-5.3,9.2-9.6c13.7-36.8,33.4-87,44.2-110.2l3-6.5h87.6l3.1,6.2c11.3,22.7,32.7,73.3,47.7,110.6c1.7,4.1,5.1,7.5,9.2,9.2l57.9,23.4c4,1.7,9.3,1.5,13-0.2c37.5-17.1,87.9-38.9,111.4-47.5l6.7-2.3l61.7,60.2l-2.4,6.8c-8.4,23.7-29.4,73.7-45.9,110.8c-1.9,4.2-1.9,8.9-0.1,13.3l23.8,56.7c1.8,4.3,5.3,7.6,9.7,9.2c45.4,16.1,91.7,33.8,112.5,43.1l6.7,3v84.9l-6.3,3.1c-23.4,11.2-75,32-113,46.7C833.3,591.8,829.8,595.2,828.1,599.2z" fill="#ffffff"/></g></g><g/><g/><g/><g/><g/><g/><g/><g/><g/><g/><g/><g/><g/><g/><g/></g>
</svg>